<?xml version="1.0" encoding="UTF-8"?>
<svg id="_レイヤー_1" data-name="レイヤー_1" xmlns="http://www.w3.org/2000/svg" version="1.1" xmlns:xlink="http://www.w3.org/1999/xlink" viewBox="0 0 500 500">
  <!-- Generator: Adobe Illustrator 29.8.2, SVG Export Plug-In . SVG Version: 2.1.1 Build 3)  -->
  <g>
    <image width="500" height="500" xlink:href="../img/target1.png"/>
    <image width="146" height="148" transform="translate(251.3 3.7) scale(1.7)" xlink:href="I:\鈴木咲\作成した物\弓道関係\送信用ボタン\4x\アセット 1@4x.png"/>
  </g>
  <g>
    <g>
      <path d="M45.4,119.9l3-3.9,29.1,8.3.2-.3-15.1-26.4,3-3.9,26.6,20.9-2.3,3-20.2-15.9-.2.3,13.8,24.2-2.3,2.9-26.7-7.6-.2.3,20.2,15.9-2.3,3-26.6-20.9Z"/>
      <path d="M102.7,103.6l-3.2,2.8-12.8-33.9,3.2-2.8,31.4,17.7-3.2,2.8-26.2-15.1-.2.2,11,28.3ZM95.3,92.5l13-11.3,2.4,2.8-13,11.3-2.4-2.8Z"/>
      <path d="M112.1,56.2l-1.9-3.1,21.5-13.2,1.9,3.1-9,5.5,15.7,26-3.5,2.1-15.7-26-9,5.5Z"/>
      <path d="M177.6,37.9c1.3,3.3,1.9,6.5,1.6,9.4-.2,2.9-1.1,5.4-2.7,7.6-1.6,2.1-3.7,3.7-6.3,4.8-2.7,1.1-5.3,1.3-7.9.8-2.6-.5-5-1.7-7.1-3.7-2.1-2-3.9-4.6-5.2-8-1.3-3.3-1.9-6.5-1.6-9.4.2-2.9,1.1-5.4,2.7-7.6,1.6-2.1,3.7-3.7,6.3-4.8,2.7-1.1,5.3-1.3,7.9-.8,2.6.5,5,1.7,7.1,3.7,2.1,2,3.9,4.6,5.2,8ZM174,39.4c-1.1-2.7-2.4-4.9-4.1-6.4-1.6-1.5-3.4-2.5-5.3-2.8-1.9-.4-3.8-.2-5.7.6-1.9.8-3.4,1.9-4.6,3.5-1.1,1.6-1.8,3.5-2,5.7-.2,2.2.3,4.7,1.4,7.5,1.1,2.7,2.4,4.9,4.1,6.4,1.6,1.5,3.4,2.5,5.3,2.8,1.9.4,3.8.2,5.7-.6,1.9-.8,3.4-1.9,4.5-3.5,1.2-1.6,1.8-3.5,2-5.7.2-2.2-.3-4.7-1.4-7.5Z"/>
      <path d="M188.5,16.2l4.8-.9,16.1,25.8h.4c0,0,6.3-29.9,6.3-29.9l4.8-.9,5.9,33.5-3.7.7-4.5-25.5h-.3c0,0-5.8,27.4-5.8,27.4l-3.6.6-14.8-23.6h-.3c0,0,4.5,25.5,4.5,25.5l-3.7.7-5.9-33.5Z"/>
      <path d="M241.8,42.6h-4.3c0,0,13-33.9,13-33.9h4.2c0,0,11.7,34.3,11.7,34.3h-4.3c0,0-9.5-28.9-9.5-28.9h-.3s-10.6,28.4-10.6,28.4ZM243.6,29.4l17.2.3v3.7c0,0-17.2-.3-17.2-.3v-3.7Z"/>
    </g>
    <g>
      <path d="M305.7,487.2l-10.2-32.5,19.3-6.2,1.1,3.5-15.4,4.9,3.5,11,14.4-4.6,1.1,3.5-14.4,4.6,3.5,11,15.7-5,1.1,3.5-19.5,6.2Z"/>
      <path d="M347.8,433.4l15.3,30.4-3.5,1.8-28.3-15.6h-.3c0,.1,12,24,12,24l-3.6,1.8-15.3-30.4,3.5-1.8,28.4,15.6h.3c0-.1-12-24.1-12-24.1l3.6-1.8Z"/>
      <path d="M360.1,430.7l-2.2-2.9,20.2-15.1,2.2,2.9-8.5,6.3,18,24.4-3.3,2.4-18-24.4-8.5,6.3Z"/>
      <path d="M409.8,430.1l-23.9-24,14.3-14.5,2.6,2.6-11.4,11.6,8.1,8.1,10.7-10.8,2.6,2.6-10.7,10.8,8.1,8.1,11.6-11.8,2.6,2.6-14.5,14.7Z"/>
      <path d="M434.6,403.7l-27.3-19.9,2.4-3.3,13.5,9.9.2-.3-4.6-22.2,3.1-4.3,4,20.5,23.3-.6-2.9,4-19.6.3,1.4,6.2,8.8,6.5-2.4,3.3Z"/>
      <path d="M429.3,351l29.2,16.8-2,3.6-29.2-16.8,2-3.6Z"/>
    </g>
  </g>
</svg>